<?xml version="1.0" encoding="utf-8"?>
<!-- Generator: Adobe Illustrator 19.2.1, SVG Export Plug-In . SVG Version: 6.00 Build 0)  -->
<!DOCTYPE svg PUBLIC "-//W3C//DTD SVG 1.1//EN" "http://www.w3.org/Graphics/SVG/1.1/DTD/svg11.dtd">
<svg version="1.1" id="Layer_1" xmlns="http://www.w3.org/2000/svg" xmlns:xlink="http://www.w3.org/1999/xlink" x="0px" y="0px"
	 viewBox="0 0 200 60" style="enable-background:new 0 0 200 60;" xml:space="preserve">
<style type="text/css">
	.Arched_x0020_Green{fill:url(#SVGID_1_);stroke:#FFFFFF;stroke-width:0.25;stroke-miterlimit:1;}
	.st0{fill:#303329;}
	.st1{display:none;fill:#303329;}
	.st2{fill:#9CCB3B;}
	.st3{fill:#B4BAB1;}
	.st4{font-family:'Dosis-Medium';}
	.st5{font-size:8.6311px;}
	.st6{font-size:20.6878px;}
</style>
<linearGradient id="SVGID_1_" gradientUnits="userSpaceOnUse" x1="-269.2361" y1="190.4676" x2="-268.529" y2="189.7605">
	<stop  offset="0" style="stop-color:#64AA52"/>
	<stop  offset="0.9831" style="stop-color:#273820"/>
</linearGradient>
<g>
	<path class="st2" d="M19.1,21c0,0-1.3,0-3.1,0.5c-1.1,0.3-2.5,0.9-3.9,1.7c-1.3,0.8-2.7,1.9-3.9,3.4c-0.4,0.5-0.9,1.1-1.3,1.8
		c-0.4,0.7-0.8,1.4-1.2,2.2c-0.3,0.7-0.6,1.5-0.8,2.3c-1,4.1-0.3,8.6,2,12.3c1.5,2.4,3.7,4.4,6.4,5.7c2.6,1.3,5.7,1.9,9.2,1.4
		c1.9-0.2,3.6-0.8,5-1.6c4.1-2.1,6.1-5.5,6.1-5.5l-3.9-7.8c0,0-1.2,3.5-4,5.8c-1.2,1-2.7,1.7-4.4,1.9c-0.9,0.1-1.8,0.1-2.8-0.2
		c-0.6-0.1-1.2-0.4-1.8-0.6c-0.8-0.3-1.5-0.9-2.1-1.5c-1.1-1-1.9-2.3-2.3-3.7c-0.5-1.8-0.4-3.7,0.1-5.2c0.3-0.8,0.7-1.5,1.1-2.1
		c1-1.5,2.3-2.4,3.6-3c1-0.4,1.9-0.6,2.8-0.7c1.9-0.1,3.4,0.4,3.4,0.4L19.1,21z"/>
	<path class="st2" d="M48.9,28.4c-0.8,0-2.1,0.1-3.8,0.9c-0.9,0.4-1.7,1-2.6,2c-0.7,0.8-1.3,1.8-1.8,3.2c-1.9-3.8-4-7.9-4-7.9
		s0.6-0.7,1.6-1.7c1.4-1.3,3.7-2.8,6.9-3.6c2.1-0.5,4.5-0.6,7.2,0c2.1,0.5,3.8,1.3,5.3,2.3c1.1,0.8,2.2,1.7,3,2.6
		c0.8,0.9,1.5,1.9,2,2.9c0.5,0.9,0.9,1.9,1.2,2.8c0.8,2.4,0.8,4.7,0.7,6.2c-0.1,1-0.3,2.4-0.8,3.8c-0.8,2.3-2.3,4.8-4.7,6.8
		c-1.9,1.7-4.4,3-7.8,3.6c-2.5,0.4-5.1,0.2-7.6-0.6c-1.6-0.5-3.1-1.4-4.5-2.4c-1-0.7-1.9-1.5-2.6-2.5c-0.9-1.1-1.8-3-2.1-3.6
		c-0.3-0.6-1.3-2.6-2-4L20.3,14.8L18,16l0-5.6L24.8,7l17,33.7c0,0,2,4.8,7.4,4.6c1.1,0,2.1-0.3,2.9-0.7c1.7-0.7,3-1.9,3.9-3.3
		c0.6-1,1-1.9,1.1-2.8c0.1-0.7,0.2-1.4,0.2-2.1c0-0.4-0.1-1.6-0.6-2.9c-0.5-1.3-1.6-2.8-3.1-3.8C52.4,28.9,50.6,28.3,48.9,28.4z"/>
</g>
<text transform="matrix(1 0 0 1 74.8077 27.3706)" class="st4 st5">The </text>
<text transform="matrix(1 0 0 1 72.3692 45.6851)" class="st4 st6">CREATIVEBONE</text>
</svg>
